Coordinates
version=1
nRows=16
nColumns=40
inDegrees=yes

Units are S.I. units (second, meters, Newtons, ...)
Angles are in degrees.

endheader
time	pelvis_tilt	pelvis_list	pelvis_rotation	pelvis_tx	pelvis_ty	pelvis_tz	hip_flexion_r	hip_adduction_r	hip_rotation_r	knee_angle_r	knee_angle_r_beta	ankle_angle_r	subtalar_angle_r	mtp_angle_r	hip_flexion_l	hip_adduction_l	hip_rotation_l	knee_angle_l	knee_angle_l_beta	ankle_angle_l	subtalar_angle_l	mtp_angle_l	lumbar_extension	lumbar_bending	lumbar_rotation	arm_flex_r	arm_add_r	arm_rot_r	elbow_flex_r	pro_sup_r	wrist_flex_r	wrist_dev_r	arm_flex_l	arm_add_l	arm_rot_l	elbow_flex_l	pro_sup_l	wrist_flex_l	wrist_dev_l
     35.97714286	     -2.44752790	     -3.51052162	     -1.01936414	      0.92472870	      0.93717494	      0.43327761	     33.27042231	     -3.29770786	     -5.91293442	     54.78282697	     54.78282697	      1.20237309	    -15.23222645	      0.82421916	      9.66363552	     -2.82247491	     -8.80263876	     17.46451042	     17.46451042	     12.41538413	    -13.14930815	     -0.43913206	     -9.49710177	      6.36177475	      3.25569907	      3.66277368	    -11.38537186	     -5.62973201	     25.01356968	     46.59776712	      0.00000000	      0.00000000	     22.47145077	    -14.88638247	     -0.79066203	     50.09407653	     46.30839349	      0.00000000	      0.00000000
     35.98928571	     -2.64840655	     -3.54211823	     -1.23919286	      0.92353442	      0.93684904	      0.43342903	     33.67294719	     -3.09696473	     -6.06756836	     51.55993471	     51.55993471	      1.34894770	    -14.31859599	      1.03413218	      9.27566082	     -2.84655380	     -8.95168213	     17.19434572	     17.19434572	     12.71237561	    -13.07629929	     -0.53508295	     -9.40278372	      6.49329842	      3.03396783	      2.11357983	    -11.32735368	     -5.62510687	     24.34842783	     46.61229632	      0.00000000	      0.00000000	     23.56115197	    -15.40487343	     -1.11673497	     50.85812747	     46.35661157	      0.00000000	      0.00000000
     36.00142857	     -2.66005570	     -3.55515445	     -1.49203000	      0.92258741	      0.93675653	      0.43355065	     33.62329429	     -2.94426832	     -6.35552383	     47.95221158	     47.95221158	      1.36923911	    -13.15883301	      0.40118070	      8.56090442	     -2.84200773	     -9.27208072	     16.73676253	     16.73676253	     12.91635461	    -12.80955055	     -0.82469471	     -9.63887517	      6.58365515	      3.54419380	      0.36625581	    -11.46568351	     -5.75267535	     23.38710566	     46.65611197	      0.00000000	      0.00000000	     24.41270576	    -15.21177000	     -1.99940555	     53.34940794	     46.47772968	      0.00000000	      0.00000000
     36.01357143	     -2.79379242	     -3.60329462	     -1.70616474	      0.92164709	      0.93634343	      0.43383187	     33.48124475	     -2.73731234	     -6.77140978	     43.97960459	     43.97960459	      0.88790106	    -12.15374074	     -1.53881356	      8.06518013	     -2.89410248	     -9.49899068	     16.42424601	     16.42424601	     13.02461528	    -12.72070414	     -1.46083306	     -9.69699071	      6.71180989	      2.99616625	     -0.82567303	    -11.40821438	     -6.25823347	     22.82806256	     46.73548380	      0.00000000	      0.00000000	     24.36309267	    -15.70789155	     -3.74143305	     56.34540672	     46.68479899	      0.00000000	      0.00000000
     36.02571429	     -2.91982481	     -3.60074829	     -1.89836514	      0.92084402	      0.93584522	      0.43413177	     33.24196451	     -2.56829017	     -7.24607914	     40.01580661	     40.01580661	      1.17342963	    -10.60920238	     -1.39898536	      7.57968842	     -2.88510053	     -9.67716883	     16.17551497	     16.17551497	     13.33908153	    -12.57357017	     -1.65820142	     -9.71107765	      6.78070800	      3.09455733	     -2.38489812	    -11.49393896	     -6.32770157	     22.27819355	     46.75378476	      0.00000000	      0.00000000	     25.27795341	    -15.87425036	     -4.09261043	     57.55695790	     46.73928661	      0.00000000	      0.00000000
     36.03785714	     -3.22227875	     -3.58183921	     -2.11056420	      0.92019876	      0.93503596	      0.43467707	     33.03587246	     -2.34192072	     -7.76907796	     35.94100501	     35.94100501	      1.42634558	     -9.16134411	     -1.05586104	      7.26019381	     -2.87862634	     -9.89004979	     15.89257767	     15.89257767	     13.60307570	    -12.44442438	     -1.83085189	     -9.46158618	      6.82591918	      3.04631808	     -3.84207285	    -11.43199862	     -6.39477107	     21.89894185	     46.76292842	      0.00000000	      0.00000000	     26.02902366	    -16.18953981	     -4.42964322	     58.59986190	     46.78702508	      0.00000000	      0.00000000
     36.05000000	     -3.20898865	     -3.52316295	     -2.30187807	      0.92006746	      0.93450604	      0.43514331	     32.27408603	     -2.24118224	     -8.64482538	     31.81411086	     31.81411086	      1.67445642	     -7.10323817	     -1.31167240	      6.50682580	     -2.82400631	    -10.26735992	     15.50541748	     15.50541748	     13.74599401	    -12.09867447	     -2.58960580	     -9.65785492	      6.80530495	      2.93809845	     -5.64170486	    -11.58309890	     -7.07400603	     22.68308970	     46.77988252	      0.00000000	      0.00000000	     25.81408830	    -16.28353685	     -5.90062422	     62.17709576	     46.96763176	      0.00000000	      0.00000000
     36.06214286	     -3.37677630	     -3.45224350	     -2.47348195	      0.92001405	      0.93366466	      0.43582178	     31.60509003	     -1.99645148	     -9.34966395	     27.77969424	     27.77969424	      1.95198423	     -5.56023482	     -0.63768217	      5.99161327	     -2.74114405	    -10.39734403	     15.19757265	     15.19757265	     14.03332220	    -11.99378811	     -2.79112584	     -9.48259894	      6.78504389	      2.98249665	     -7.00238439	    -11.59236876	     -7.14359078	     22.29959615	     46.79007634	      0.00000000	      0.00000000	     26.42841941	    -16.41783481	     -6.18526620	     63.13113710	     47.01138250	      0.00000000	      0.00000000
     36.07428571	     -3.36283670	     -3.30288420	     -2.66534713	      0.92047738	      0.93287734	      0.43658444	     30.78964245	     -1.93729808	    -10.44669521	     24.34904855	     24.34904855	      2.79631783	     -3.17831920	      1.10326274	      5.16726775	     -2.59028931	    -10.78186112	     14.75580306	     14.75580306	     14.25102638	    -11.60544561	     -3.46181079	     -9.57287924	      6.62121994	      3.00883150	     -8.65289496	    -11.61572429	     -7.61060221	     23.01522767	     46.78367252	      0.00000000	      0.00000000	     26.45443679	    -16.44644553	     -7.17787840	     65.70177595	     47.14118267	      0.00000000	      0.00000000
     36.08642857	     -3.39695216	     -3.17169587	     -2.82800935	      0.92116083	      0.93195294	      0.43748137	     30.02311979	     -1.78480634	    -11.41922780	     21.36486710	     21.36486710	      3.66937830	     -1.35167951	      3.35928087	      4.39188746	     -2.44398862	    -11.02814284	     14.31734472	     14.31734472	     14.48279218	    -11.35816142	     -3.90353548	     -9.49486136	      6.50017173	      3.01690393	    -10.11363726	    -11.64640315	     -7.88961263	     23.36065230	     46.77622328	      0.00000000	      0.00000000	     26.60120960	    -16.44801914	     -7.80771333	     67.39189879	     47.23218071	      0.00000000	      0.00000000
     36.09857143	     -3.39316578	     -3.03430138	     -2.98370084	      0.92214135	      0.93095564	      0.43852785	     29.24800298	     -1.62939540	    -12.38426745	     18.94260366	     18.94260366	      4.36908065	      0.14814029	      5.19787779	      3.54648247	     -2.29271694	    -11.27266053	     13.87154229	     13.87154229	     14.80804368	    -11.04773282	     -4.20228752	     -9.41064633	      6.35838696	      3.11939407	    -11.46034404	    -11.65695745	     -8.05783747	     23.52878889	     46.76682086	      0.00000000	      0.00000000	     26.76970222	    -16.42279643	     -8.24457241	     68.78361878	     47.30059894	      0.00000000	      0.00000000
     36.11071429	     -3.45440386	     -2.96395998	     -3.11086105	      0.92331352	      0.92978398	      0.43974704	     28.52041286	     -1.35113279	    -13.08213403	     16.95101384	     16.95101384	      4.55433934	      0.86334209	      5.98194650	      2.84047998	     -2.22952234	    -11.38885327	     13.57931998	     13.57931998	     15.17645640	    -10.94044065	     -4.33682426	     -9.16954463	      6.28624506	      3.14784182	    -12.50116173	    -11.63153138	     -8.11053015	     23.36380517	     46.76696374	      0.00000000	      0.00000000	     26.97108471	    -16.44685996	     -8.44446656	     69.49426997	     47.33172296	      0.00000000	      0.00000000
     36.12285714	     -3.37633122	     -2.91234734	     -3.23426075	      0.92481678	      0.92875330	      0.44105719	     27.73996845	     -1.14303999	    -13.87538389	     15.69281387	     15.69281387	      4.81670393	      1.67690425	      6.70683495	      1.89290940	     -2.17992275	    -11.58932498	     13.16323574	     13.16323574	     15.58635329	    -10.60811395	     -4.44612026	     -9.08439571	      6.23409452	      3.28586792	    -13.57544820	    -11.63260343	     -8.20463324	     23.38186109	     46.76146242	      0.00000000	      0.00000000	     27.02081873	    -16.30562768	     -8.73024560	     70.56422271	     47.37510943	      0.00000000	      0.00000000
     36.13500000	     -3.37502147	     -2.85950720	     -3.34294336	      0.92645781	      0.92751182	      0.44252343	     27.21537213	     -1.00856172	    -14.57048406	     15.23678643	     15.23678643	      5.19457569	      2.32726999	      7.61592726	      1.10722598	     -2.18288267	    -11.90477805	     12.93943846	     12.93943846	     16.19424340	    -10.02241554	     -4.30549700	     -8.91467123	      6.15222287	      3.11883772	    -14.62219672	    -11.62141922	     -8.44132444	     24.27849140	     46.72318565	      0.00000000	      0.00000000	     26.52160466	    -16.31310989	     -9.54932716	     72.35098736	     47.47912853	      0.00000000	      0.00000000
     36.14714286	     -3.42164889	     -2.86697184	     -3.39384973	      0.92819610	      0.92615046	      0.44412342	     26.75066405	     -0.80142441	    -14.89209657	     15.13671487	     15.13671487	      5.11914562	      2.25149676	      7.60890057	      0.42546681	     -2.24422098	    -11.91645051	     12.79553776	     12.79553776	     16.62204116	     -9.95543464	     -4.34144261	     -8.58937079	      6.15172566	      3.11001214	    -15.28568808	    -11.59161948	     -8.44456926	     24.06619870	     46.72556114	      0.00000000	      0.00000000	     26.45998139	    -16.28257713	     -9.64645074	     72.59708087	     47.49159267	      0.00000000	      0.00000000
     36.15928571	     -3.31199630	     -2.93013463	     -3.48114841	      0.93027463	      0.92504094	      0.44596759	     25.96737728	     -0.50858024	    -15.05226555	     15.01857389	     15.01857389	      4.21278990	      2.12347939	      5.34018253	     -0.44698793	     -2.43321634	    -12.38756415	     12.75892753	     12.75892753	     17.72715192	     -8.89830943	     -3.19616159	     -8.48297166	      6.16103141	      3.03458441	    -15.83749374	    -11.55295915	     -8.44525492	     24.42773449	     46.69562811	      0.00000000	      0.00000000	     25.87281958	    -16.04602548	    -10.45411031	     74.14900252	     47.59434205	      0.00000000	      0.00000000
